<?xml version="1.0" standalone="no"?>
<!DOCTYPE svg PUBLIC "-//W3C//DTD SVG 20010904//EN"
 "http://www.w3.org/TR/2001/REC-SVG-20010904/DTD/svg10.dtd">
<svg version="1.0" xmlns="http://www.w3.org/2000/svg"
 width="398.000000pt" height="206.000000pt" viewBox="0 0 398.000000 206.000000"
 preserveAspectRatio="xMidYMid meet">

<g transform="translate(0.000000,206.000000) scale(0.100000,-0.100000)"
fill="#000000" stroke="none">
<path d="M913 1856 c-88 -17 -173 -45 -173 -56 0 -5 41 -45 92 -88 89 -76 93
-79 128 -71 103 24 265 2 372 -51 116 -58 177 -114 383 -348 49 -56 92 -102
95 -101 5 0 104 117 127 149 11 15 -7 39 -137 183 -83 91 -180 188 -218 217
-83 63 -226 134 -312 155 -92 22 -269 28 -357 11z"/>
<path d="M231 1204 c-1 -72 4 -128 14 -160 8 -27 15 -70 15 -95 0 -25 9 -81
20 -125 74 -288 293 -507 585 -585 95 -25 276 -30 370 -10 133 29 269 96 383
189 69 57 494 541 486 554 -4 6 -3 8 3 5 12 -7 76 56 67 66 -4 4 -13 2 -20 -4
-14 -12 -54 4 -54 21 0 6 -6 10 -14 10 -7 0 -27 7 -42 15 -16 8 -38 15 -48 15
-18 0 -18 1 -3 18 8 9 16 22 16 27 0 6 12 26 26 45 l27 35 -33 -35 c-18 -19
-142 -156 -275 -305 -289 -321 -352 -374 -501 -424 -80 -27 -222 -38 -244 -19
-9 7 -31 58 -49 113 -42 130 -112 301 -161 395 -29 56 -45 76 -60 77 -12 1
-31 11 -43 22 -12 12 -26 21 -31 21 -22 0 -345 162 -345 173 0 4 -4 6 -9 2 -5
-3 -17 2 -25 11 -9 8 -16 13 -16 9 0 -10 -26 18 -33 35 -3 8 -6 -35 -6 -96z
m1929 -178 c0 -2 -8 -10 -17 -17 -16 -13 -17 -12 -4 4 13 16 21 21 21 13z"/>
<path d="M2617 1147 c-3 -9 -25 -18 -54 -22 -72 -10 -74 -12 -71 -91 l3 -69
59 -15 c57 -14 60 -17 78 -61 l19 -46 -32 -52 -32 -53 49 -49 c26 -27 54 -49
62 -49 7 0 33 13 56 30 l44 29 50 -21 c46 -19 50 -25 56 -61 12 -74 18 -78 99
-75 l72 3 15 58 c15 54 19 60 60 78 24 11 51 17 59 14 19 -7 21 -7 21 3 0 4
-3 7 -7 8 -36 4 -131 54 -153 81 -11 13 -31 18 -75 19 -131 2 -233 103 -236
231 -1 39 -2 43 -9 23 -4 -14 -8 -19 -9 -12 -1 6 -8 12 -16 12 -8 0 -15 3 -15
8 0 4 -14 16 -31 27 -17 11 -36 31 -43 44 -10 19 -14 20 -19 8z"/>
<path d="M2209 1083 c-13 -16 -12 -17 4 -4 16 13 21 21 13 21 -2 0 -10 -8 -17
-17z"/>
<path d="M2198 860 c-35 -39 -65 -75 -66 -81 -5 -12 200 -240 300 -335 114
-108 253 -182 403 -215 93 -20 275 -15 370 10 88 24 223 87 270 127 29 24 29
24 3 8 -26 -15 -28 -15 -34 0 -4 10 -13 15 -20 12 -17 -7 -46 3 -39 13 2 4 -1
8 -8 9 -31 2 -83 28 -79 40 3 9 -3 11 -21 7 -15 -4 -28 -2 -32 6 -5 8 -4 10 3
5 7 -4 12 -2 12 4 0 8 -6 9 -17 4 -105 -45 -265 -55 -385 -25 -157 41 -242
102 -438 320 -80 88 -148 161 -152 161 -4 0 -35 -32 -70 -70z"/>
<path d="M3350 695 c-7 -8 -16 -13 -20 -10 -4 3 -13 -2 -20 -10 -10 -12 -15
-12 -35 1 -15 10 -25 11 -29 5 -4 -6 8 -18 25 -27 32 -16 32 -16 68 20 19 20
33 36 30 36 -4 0 -12 -7 -19 -15z m-20 -19 c0 -2 -8 -10 -17 -17 -16 -13 -17
-12 -4 4 13 16 21 21 21 13z"/>
<path d="M1075 609 c-4 -6 -5 -12 -2 -15 2 -3 7 2 10 11 7 17 1 20 -8 4z"/>
</g>
</svg>
